<svg width="772" height="289" viewBox="0 0 772 289" fill="none" xmlns="http://www.w3.org/2000/svg">
<path d="M323.692 143.942C323.692 128.164 303.92 113.212 273.606 103.939C280.601 73.0632 277.492 48.4984 263.793 40.6338C260.635 38.789 256.943 37.9152 252.911 37.9152V48.7412C255.145 48.7412 256.943 49.1781 258.449 50.0034C265.056 53.79 267.922 68.2085 265.687 86.7534C265.153 91.3168 264.278 96.123 263.21 101.026C253.688 98.696 243.292 96.8997 232.361 95.7346C225.803 86.7534 219.001 78.5975 212.151 71.4611C227.989 56.7514 242.854 48.6926 252.959 48.6926V37.8666C239.599 37.8666 222.11 47.3818 204.427 63.8878C186.744 47.4789 169.255 38.0608 155.895 38.0608V48.8868C165.951 48.8868 180.866 56.897 196.703 71.5097C189.902 78.6461 183.1 86.7534 176.639 95.7346C165.66 96.8997 155.264 98.696 145.742 101.075C144.624 96.2201 143.799 91.511 143.216 86.9962C140.932 68.4512 143.75 54.0328 150.308 50.1976C151.766 49.3237 153.66 48.9353 155.895 48.9353V38.1094C151.814 38.1094 148.122 38.9832 144.916 40.828C131.265 48.6926 128.204 73.2088 135.248 103.988C105.031 113.309 85.3561 128.213 85.3561 143.942C85.3561 159.719 105.128 174.672 135.443 183.944C128.447 214.82 131.556 239.385 145.256 247.25C148.414 249.094 152.106 249.968 156.187 249.968C169.546 249.968 187.035 240.453 204.719 223.947C222.402 240.356 239.891 249.774 253.251 249.774C257.331 249.774 261.024 248.9 264.23 247.055C277.881 239.191 280.942 214.675 273.897 183.896C304.017 174.623 323.692 159.671 323.692 143.942ZM260.441 111.561C258.643 117.823 256.408 124.28 253.882 130.737C251.89 126.853 249.801 122.969 247.518 119.086C245.283 115.202 242.903 111.415 240.523 107.726C247.421 108.745 254.076 110.007 260.441 111.561ZM238.191 163.263C234.401 169.817 230.515 176.031 226.483 181.808C219.244 182.439 211.909 182.779 204.524 182.779C197.189 182.779 189.853 182.439 182.663 181.857C178.631 176.08 174.696 169.914 170.907 163.409C167.214 157.049 163.862 150.593 160.802 144.087C163.814 137.582 167.214 131.077 170.858 124.717C174.647 118.163 178.534 111.949 182.566 106.172C189.804 105.541 197.14 105.201 204.524 105.201C211.86 105.201 219.196 105.541 226.386 106.124C230.418 111.901 234.353 118.066 238.142 124.572C241.834 130.931 245.186 137.388 248.247 143.893C245.186 150.398 241.834 156.904 238.191 163.263ZM253.882 156.952C256.506 163.458 258.74 169.963 260.586 176.274C254.222 177.828 247.518 179.138 240.571 180.158C242.952 176.42 245.332 172.584 247.567 168.652C249.801 164.768 251.89 160.836 253.882 156.952ZM204.621 208.752C200.103 204.091 195.585 198.897 191.116 193.217C195.488 193.411 199.958 193.557 204.476 193.557C209.042 193.557 213.56 193.46 217.981 193.217C213.609 198.897 209.091 204.091 204.621 208.752ZM168.477 180.158C161.579 179.138 154.923 177.876 148.559 176.323C150.357 170.06 152.592 163.603 155.118 157.147C157.11 161.03 159.199 164.914 161.482 168.798C163.765 172.682 166.097 176.468 168.477 180.158ZM204.379 79.1315C208.897 83.7921 213.415 88.9866 217.884 94.6666C213.512 94.4724 209.042 94.3267 204.524 94.3267C199.958 94.3267 195.44 94.4238 191.019 94.6666C195.391 88.9866 199.909 83.7921 204.379 79.1315ZM168.429 107.726C166.048 111.464 163.668 115.299 161.433 119.231C159.199 123.115 157.11 126.999 155.118 130.883C152.494 124.377 150.26 117.872 148.414 111.561C154.778 110.056 161.482 108.745 168.429 107.726ZM124.463 168.506C107.266 161.176 96.141 151.564 96.141 143.942C96.141 136.32 107.266 126.659 124.463 119.377C128.641 117.581 133.208 115.979 137.92 114.474C140.689 123.989 144.333 133.893 148.851 144.039C144.382 154.137 140.787 163.992 138.066 173.458C133.257 171.953 128.69 170.303 124.463 168.506ZM150.6 237.88C143.993 234.093 141.127 219.675 143.361 201.13C143.896 196.567 144.77 191.76 145.839 186.857C155.361 189.187 165.757 190.984 176.688 192.149C183.246 201.13 190.047 209.286 196.897 216.422C181.06 231.132 166.194 239.191 156.089 239.191C153.903 239.142 152.057 238.705 150.6 237.88ZM265.833 200.887C268.116 219.432 265.299 233.851 258.74 237.686C257.283 238.56 255.388 238.948 253.153 238.948C243.097 238.948 228.183 230.938 212.346 216.325C219.147 209.189 225.948 201.082 232.41 192.1C243.389 190.935 253.785 189.139 263.307 186.76C264.424 191.663 265.299 196.372 265.833 200.887ZM284.537 168.506C280.359 170.303 275.792 171.905 271.08 173.41C268.311 163.895 264.667 153.991 260.149 143.845C264.618 133.747 268.213 123.892 270.934 114.425C275.743 115.93 280.31 117.581 284.585 119.377C301.783 126.708 312.908 136.32 312.908 143.942C312.859 151.564 301.734 161.224 284.537 168.506Z" fill="#61DAFB"/>
<path d="M204.476 166.128C216.737 166.128 226.677 156.195 226.677 143.942C226.677 131.689 216.737 121.756 204.476 121.756C192.214 121.756 182.274 131.689 182.274 143.942C182.274 156.195 192.214 166.128 204.476 166.128Z" fill="#61DAFB"/>
<path d="M477.328 194.426L537.875 103.41C538.852 101.913 539.828 100.839 540.805 100.188C541.846 99.5365 542.855 99.2109 543.832 99.2109C545.069 99.2109 546.078 99.7318 546.859 100.773C547.706 101.75 548.129 102.987 548.129 104.484V201.164C548.129 203.052 547.901 204.68 547.445 206.047C546.99 207.349 545.818 208 543.93 208C542.302 208 541.195 207.349 540.609 206.047C540.089 204.68 539.828 203.052 539.828 201.164V114.445L482.113 199.602C480.551 201.815 478.956 202.922 477.328 202.922C475.57 202.922 473.975 201.815 472.543 199.602L414.828 114.445V201.164C414.828 203.052 414.535 204.68 413.949 206.047C413.428 207.349 412.354 208 410.727 208C408.839 208 407.667 207.349 407.211 206.047C406.755 204.68 406.527 203.052 406.527 201.164V104.484C406.527 102.987 406.918 101.75 407.699 100.773C408.546 99.7318 409.587 99.2109 410.824 99.2109C411.736 99.2109 412.68 99.5365 413.656 100.188C414.698 100.839 415.74 101.913 416.781 103.41L477.328 194.426ZM633.676 149.797L682.113 101.262C683.415 99.9596 684.717 99.3086 686.02 99.3086C686.931 99.3086 687.647 99.6341 688.168 100.285C688.754 100.936 689.047 101.717 689.047 102.629C689.047 103.15 688.917 103.736 688.656 104.387C688.396 105.038 687.973 105.656 687.387 106.242L638.754 154.582L688.266 200.676C689.112 201.457 689.698 202.271 690.023 203.117C690.414 203.898 690.609 204.615 690.609 205.266C690.609 206.047 690.349 206.698 689.828 207.219C689.372 207.74 688.754 208 687.973 208C686.54 208 685.01 207.219 683.383 205.656L633.676 159.367L583.969 205.754C582.992 206.665 582.146 207.284 581.43 207.609C580.714 207.87 580.03 208 579.379 208C578.533 208 577.849 207.772 577.328 207.316C576.872 206.796 576.645 206.145 576.645 205.363C576.645 203.866 577.458 202.336 579.086 200.773L628.598 154.582L579.965 106.242C578.793 105.07 578.207 103.866 578.207 102.629C578.207 101.717 578.5 100.936 579.086 100.285C579.672 99.6341 580.421 99.3086 581.332 99.3086C582.634 99.3086 583.936 99.9596 585.238 101.262L633.676 149.797Z" fill="white"/>
</svg>
